<?xml version="1.0" encoding="utf-8"?>
<!-- Generator: Adobe Illustrator 21.1.0, SVG Export Plug-In . SVG Version: 6.00 Build 0)  -->
<svg version="1.1"
	 id="svg2" inkscape:export-filename="/home/byron/art/cards/final/PNGs/red_joker.png" inkscape:export-xdpi="215.44792" inkscape:export-ydpi="215.44792" inkscape:version="0.48.0 r9654" sodipodi:docname="red_joker.svg" xmlns:cc="http://creativecommons.org/ns#" xmlns:dc="http://purl.org/dc/elements/1.1/" xmlns:inkscape="http://www.inkscape.org/namespaces/inkscape" xmlns:rdf="http://www.w3.org/1999/02/22-rdf-syntax-ns#" xmlns:sodipodi="http://sodipodi.sourceforge.net/DTD/sodipodi-0.dtd" xmlns:svg="http://www.w3.org/2000/svg"
	 xmlns="http://www.w3.org/2000/svg" xmlns:xlink="http://www.w3.org/1999/xlink" x="0px" y="0px" viewBox="0 0 167.1 242.7"
	 style="enable-background:new 0 0 167.1 242.7;" xml:space="preserve">
<style type="text/css">
	.st0{fill:#FFFFFF;stroke:#000000;stroke-width:0.5;}
	.st1{clip-path:url(#SVGID_2_);fill:none;stroke:#000000;stroke-width:0.5;}
</style>
<sodipodi:namedview  bordercolor="#666666" borderopacity="1" gridtolerance="10" guidetolerance="10" id="namedview39" inkscape:current-layer="svg2" inkscape:cx="41.637871" inkscape:cy="152.384" inkscape:pageopacity="0" inkscape:pageshadow="2" inkscape:window-height="977" inkscape:window-maximized="1" inkscape:window-width="1680" inkscape:window-x="0" inkscape:window-y="25" inkscape:zoom="2.4336873" objecttolerance="10" pagecolor="#ffffff" showgrid="false">
	</sodipodi:namedview>
<g id="Layer_x0020_1">
	<path id="path5" class="st0" d="M166.8,235.5c0,3.8-3.1,6.9-6.9,6.9H7.1c-3.8,0-6.9-3.1-6.9-6.9V7.1c0-3.8,3.1-6.9,6.9-6.9H160
		c3.8,0,6.9,3.1,6.9,6.9V235.5z"/>
	<g id="g7">
		<g id="g9">
		</g>
	</g>
	<g id="g15">
	</g>
	<g id="g19">
	</g>
	<g id="g23">
		<g id="g25">
		</g>
	</g>
	<g id="g31">
		<g id="g33">
		</g>
	</g>
	<g>
		<defs>
			<rect id="SVGID_1_" x="10.3" y="10.3" width="146.6" height="222.2"/>
		</defs>
		<clipPath id="SVGID_2_">
			<use xlink:href="#SVGID_1_"  style="overflow:visible;"/>
		</clipPath>
		<line class="st1" x1="-40.1" y1="108.6" x2="111" y2="-42.5"/>
		<line class="st1" x1="-40.1" y1="97.6" x2="111" y2="-53.5"/>
		<line class="st1" x1="-40.1" y1="86.6" x2="111" y2="-64.5"/>
		<line class="st1" x1="-40.1" y1="75.6" x2="111" y2="-75.5"/>
		<line class="st1" x1="-40.1" y1="64.6" x2="111" y2="-86.5"/>
		<line class="st1" x1="-40.1" y1="164.6" x2="139.8" y2="-15.3"/>
		<line class="st1" x1="-40.1" y1="153.6" x2="135.8" y2="-22.3"/>
		<line class="st1" x1="-40.1" y1="142.6" x2="111" y2="-8.5"/>
		<line class="st1" x1="-40.1" y1="131.6" x2="111" y2="-19.5"/>
		<line class="st1" x1="-40.1" y1="120.6" x2="111" y2="-30.5"/>
		<line class="st1" x1="-11.1" y1="190.6" x2="169.6" y2="9.9"/>
		<line class="st1" x1="-10.6" y1="180" x2="165.8" y2="3.6"/>
		<line class="st1" x1="-10.6" y1="167.2" x2="165.8" y2="-9.2"/>
		<line class="st1" x1="-11.1" y1="157.6" x2="140" y2="6.5"/>
		<line class="st1" x1="-11.1" y1="146.6" x2="140" y2="-4.5"/>
		<line class="st1" x1="-0.1" y1="234.6" x2="176" y2="58.5"/>
		<line class="st1" x1="-0.1" y1="223.6" x2="176" y2="47.5"/>
		<line class="st1" x1="-0.1" y1="212.6" x2="176" y2="36.5"/>
		<line class="st1" x1="-0.1" y1="201.6" x2="176" y2="25.5"/>
		<line class="st1" x1="-0.1" y1="190.6" x2="176" y2="14.5"/>
		<line class="st1" x1="-0.1" y1="290.6" x2="180.6" y2="109.9"/>
		<line class="st1" x1="-0.1" y1="279.6" x2="176" y2="103.5"/>
		<line class="st1" x1="-0.1" y1="268.6" x2="176" y2="92.5"/>
		<line class="st1" x1="-0.1" y1="257.6" x2="176" y2="81.5"/>
		<line class="st1" x1="-0.1" y1="246.6" x2="176" y2="70.5"/>
		<line class="st1" x1="28.9" y1="316.6" x2="180" y2="165.5"/>
		<line class="st1" x1="28.9" y1="305.6" x2="180" y2="154.5"/>
		<line class="st1" x1="28.9" y1="294.6" x2="180" y2="143.5"/>
		<line class="st1" x1="28.9" y1="283.6" x2="180" y2="132.5"/>
		<line class="st1" x1="38.9" y1="350.6" x2="190" y2="199.5"/>
		<line class="st1" x1="38.9" y1="339.6" x2="190" y2="188.5"/>
		<line class="st1" x1="38.9" y1="328.6" x2="190" y2="177.5"/>
		<line class="st1" x1="38.9" y1="317.6" x2="190" y2="166.5"/>
		<line class="st1" x1="28.9" y1="272.6" x2="180" y2="121.5"/>
	</g>
</g>
</svg>
